<?xml version="1.0" standalone="no"?>
<!DOCTYPE svg PUBLIC "-//W3C//DTD SVG 20010904//EN"
 "http://www.w3.org/TR/2001/REC-SVG-20010904/DTD/svg10.dtd">
<svg version="1.0" xmlns="http://www.w3.org/2000/svg"
 width="1274.000000pt" height="303.000000pt" viewBox="0 0 1274.000000 303.000000"
 preserveAspectRatio="xMidYMid meet">
<metadata>
Created by potrace 1.16, written by Peter Selinger 2001-2019
</metadata>
<g transform="translate(0.000000,303.000000) scale(0.100000,-0.100000)"
fill="#272525" stroke="none">
<path d="M11718 2710 c-507 -58 -905 -403 -1034 -897 -32 -120 -44 -362 -25
-493 41 -274 159 -509 352 -695 184 -178 379 -276 639 -321 114 -20 374 -14
485 11 87 19 195 54 195 63 0 4 -20 70 -44 147 -29 93 -49 139 -58 138 -7 -1
-45 -13 -83 -26 -196 -69 -435 -62 -620 18 -119 52 -263 174 -342 290 -122
181 -177 359 -176 570 3 387 244 738 587 856 156 54 339 55 521 4 53 -15 97
-26 99 -24 1 2 33 62 70 133 53 101 65 131 54 137 -24 16 -163 57 -244 72
-104 20 -280 28 -376 17z"/>
<path d="M3245 2664 c-617 -110 -1059 -692 -996 -1313 7 -64 15 -119 19 -123
7 -7 393 324 400 343 2 5 -4 6 -13 2 -16 -5 -17 0 -10 48 11 84 52 213 91 292
52 103 110 182 196 263 170 161 362 234 588 221 l105 -6 120 106 c66 58 121
109 123 113 3 8 -121 43 -212 59 -83 15 -315 12 -411 -5z"/>
<path d="M304 2623 c8 -21 204 -531 436 -1133 232 -602 431 -1119 442 -1148
l20 -53 105 3 106 3 448 1165 c247 641 452 1173 455 1183 5 16 -7 17 -187 15
l-193 -3 -312 -798 c-172 -439 -314 -800 -316 -802 -1 -1 -145 359 -318 801
l-315 804 -192 0 -192 0 13 -37z"/>
<path d="M4980 1475 l0 -1185 775 0 775 0 0 150 0 150 -595 0 -595 0 0 1035 0
1035 -180 0 -180 0 0 -1185z"/>
<path d="M6660 1475 l0 -1185 180 0 180 0 0 1035 0 1035 365 0 365 0 0 150 0
150 -545 0 -545 0 0 -1185z"/>
<path d="M8826 2628 c-60 -144 -947 -2308 -952 -2321 -6 -16 10 -17 177 -17
l184 0 355 865 c195 476 357 865 360 865 3 0 165 -388 360 -863 l356 -862 182
-3 c100 -1 182 1 182 5 -1 5 -218 537 -483 1183 l-483 1175 -112 3 -113 3 -13
-33z"/>
<path d="M10160 1475 l0 -1185 180 0 180 0 0 1185 0 1185 -180 0 -180 0 0
-1185z"/>
<path d="M4055 2349 l-86 -132 59 -61 c72 -75 110 -124 151 -197 l32 -57 -28
-22 -28 -21 25 5 c14 3 108 25 210 47 102 23 187 44 189 46 8 6 -39 96 -97
183 -80 121 -237 279 -329 334 -8 4 -41 -37 -98 -125z"/>
<path d="M4457 1740 c-81 -70 -162 -140 -180 -155 -32 -26 -32 -26 -6 -21 19
4 29 1 33 -10 15 -40 -2 -237 -30 -349 -78 -303 -293 -548 -563 -640 -159 -54
-322 -53 -476 1 -38 14 -75 26 -82 27 -13 2 -253 -199 -253 -213 0 -8 109 -56
194 -85 158 -52 394 -69 567 -40 510 85 893 455 1005 970 23 109 24 360 0 466
-22 103 -45 179 -54 178 -4 0 -74 -58 -155 -129z"/>
<path d="M2465 1184 c-98 -14 -181 -26 -183 -28 -7 -8 50 -161 89 -239 22 -44
60 -110 84 -146 47 -70 171 -211 185 -211 5 0 54 62 108 139 l100 138 -51 78
c-53 82 -117 225 -117 262 0 12 6 24 13 26 26 11 -55 4 -228 -19z"/>
</g>
</svg>
